<svg xmlns="http://www.w3.org/2000/svg" viewBox="0 0 600 600">
<g transform="translate(0,600) scale(0.1,-0.1)" fill="currentColor" stroke="none">
<path d="M3210 4540 c0 -7 270 -10 755 -10 l755 0 0 -112 0 -112 -27 25 c-75
69 -92 82 -139 109 -27 16 -77 36 -110 45 -82 21 -348 39 -371 24 -17 -10 -18
-57 -13 -877 5 -806 6 -869 23 -899 10 -18 22 -33 27 -33 5 0 -1 17 -13 38
l-22 37 -3 863 -3 862 23 1 c66 4 220 -3 273 -12 125 -21 196 -55 285 -138 51
-47 79 -62 81 -43 4 54 6 202 2 219 l-5 23 -759 0 c-488 0 -759 -4 -759 -10z"/>
<path d="M2007 4532 c7 -5 56 -8 108 -8 52 1 95 -2 95 -5 0 -4 39 -87 86 -185
47 -99 110 -228 139 -289 29 -60 90 -186 135 -280 45 -93 108 -224 140 -290
32 -66 90 -187 130 -270 39 -82 88 -184 107 -225 20 -41 44 -88 54 -104 l18
-30 107 219 c58 121 130 270 159 330 29 61 85 178 125 260 143 297 203 421
230 480 15 33 62 130 104 215 l76 155 -97 3 c-185 5 -328 -41 -436 -141 -31
-29 -59 -51 -62 -49 -3 3 -6 51 -7 106 l-2 101 -5 -100 c-9 -148 -6 -150 75
-76 108 99 217 139 397 148 64 3 117 4 117 1 0 -3 -22 -51 -50 -107 -27 -56
-50 -103 -50 -105 0 -2 -39 -84 -86 -182 -81 -168 -124 -257 -296 -614 -39
-80 -102 -210 -140 -290 -38 -80 -90 -187 -116 -238 l-45 -93 -89 183 c-49
101 -103 212 -120 248 -17 36 -80 166 -139 289 -60 123 -109 225 -109 226 0 1
-50 106 -111 231 -61 126 -140 289 -175 362 l-63 132 -108 0 c-59 0 -102 -4
-96 -8z"/>
<path d="M2001 4519 c-1 -4 19 -50 44 -103 l45 -97 0 -493 c0 -291 -4 -496 -9
-501 -6 -6 -4 -17 5 -29 12 -17 14 45 14 490 0 328 4 514 10 522 6 6 7 10 4 8
-3 -3 -30 43 -59 102 -30 59 -54 104 -54 101z"/>
<path d="M3822 4465 c-1 -5 -2 -374 -2 -820 0 -874 -1 -904 -52 -944 -41 -34
-15 -41 146 -41 155 0 216 6 216 21 0 4 -15 3 -32 -2 -39 -11 -328 -11 -328 0
0 4 9 16 20 26 38 34 40 90 38 945 -2 454 -4 821 -6 815z"/>
<path d="M3742 4309 c-33 -68 -101 -209 -152 -314 -51 -104 -114 -235 -140
-290 -26 -55 -89 -185 -140 -290 -51 -104 -105 -217 -120 -250 -15 -33 -57
-120 -94 -194 -36 -73 -66 -140 -66 -147 0 -8 16 -46 35 -84 l35 -70 -105 0
c-66 0 -105 4 -105 10 0 6 -47 108 -105 227 -58 118 -105 217 -105 218 0 2
-52 110 -115 240 -63 131 -115 239 -115 240 0 1 -51 108 -114 236 -62 129
-128 267 -147 307 -18 41 -35 69 -37 64 -1 -5 20 -56 47 -113 50 -106 81 -172
331 -689 78 -162 155 -322 170 -355 15 -33 64 -135 108 -227 l81 -168 111 0
c60 0 110 4 110 8 0 5 -16 41 -35 81 -19 39 -35 74 -35 76 0 3 44 96 99 208
54 111 113 233 131 272 18 38 90 188 161 333 71 145 129 265 129 267 0 1 56
118 125 260 69 142 124 260 121 262 -3 3 -32 -50 -64 -118z"/>
<path d="M2120 3941 l0 -332 40 -60 c23 -33 38 -63 35 -68 -3 -5 9 -39 26 -76
17 -37 29 -76 26 -86 -3 -10 -1 -17 4 -13 5 3 9 1 9 -4 0 -6 -6 -12 -14 -15
-9 -4 -17 10 -25 49 -7 29 -17 57 -23 60 -7 5 -9 2 -6 -7 3 -8 13 -41 23 -74
10 -33 20 -54 22 -47 3 6 9 10 14 7 15 -10 21 43 9 82 -7 21 -21 53 -32 71
-11 18 -18 36 -14 39 3 3 19 -23 36 -58 24 -52 30 -77 30 -131 0 -41 4 -68 10
-68 7 0 9 24 4 73 -7 81 -27 127 -111 256 l-54 83 2 320 c0 175 -2 322 -5 325
-3 4 -6 -143 -6 -326z"/>
<path d="M1186 4002 c-4 -6 26 -43 66 -82 72 -70 107 -97 53 -40 -16 16 -26
32 -24 35 3 2 36 -27 73 -65 38 -38 73 -67 77 -64 5 3 9 1 9 -5 0 -6 24 -24
53 -41 28 -16 46 -30 38 -30 -8 0 -12 -2 -9 -5 2 -3 18 0 35 5 25 9 37 8 67
-9 43 -25 53 -26 36 -6 -7 8 -20 15 -30 15 -10 0 -21 7 -24 15 -4 13 -10 14
-26 5 -15 -8 -28 -7 -52 6 -28 14 -102 67 -118 84 -43 45 -132 120 -138 116
-8 -5 -79 50 -72 57 9 7 80 -5 75 -13 -4 -6 57 -25 75 -23 3 1 25 4 50 7 28 4
38 3 25 -3 -20 -8 -20 -8 1 -15 12 -3 29 -4 38 0 12 5 15 2 10 -10 -4 -9 -1
-16 6 -16 32 0 163 -125 155 -148 -3 -9 0 -10 15 -2 13 7 21 7 26 -1 9 -15 64
-123 64 -127 0 -1 -10 2 -21 9 -24 13 -148 49 -164 48 -5 0 30 -14 79 -30 69
-23 99 -40 135 -74 25 -24 58 -55 74 -69 15 -14 27 -28 27 -31 0 -12 -45 7
-69 29 l-24 21 12 -22 c7 -13 28 -27 54 -34 23 -7 48 -17 55 -22 26 -20 10 9
-25 45 -20 21 -32 38 -26 38 6 0 29 -21 53 -46 23 -25 44 -44 46 -41 4 4 -26
34 -148 147 -38 34 -68 74 -87 114 -30 63 -90 141 -91 118 0 -7 -4 -11 -10 -7
-5 3 -6 13 -3 22 5 12 2 15 -10 10 -11 -4 -14 -2 -10 9 3 7 0 14 -7 14 -6 0
-8 -5 -4 -11 4 -7 1 -10 -7 -7 -8 3 -13 11 -11 17 3 16 -40 52 -55 46 -7 -2
-13 3 -13 11 0 12 -6 15 -26 10 -16 -4 -23 -3 -20 3 8 12 0 16 -39 25 -23 5
-27 4 -15 -5 12 -9 10 -10 -10 -5 -14 3 -41 6 -60 7 l-35 1 30 8 30 8 -31 1
c-17 0 -51 4 -76 7 -28 4 -48 2 -52 -4z m360 -103 c3 -6 -5 -3 -20 6 -14 10
-26 19 -26 22 0 7 39 -17 46 -28z m102 -90 c19 -30 11 -32 -11 -3 -10 13 -14
24 -10 24 5 0 14 -9 21 -21z m152 -216 l45 -46 -45 38 c-65 54 -65 55 -54 55
5 -1 29 -22 54 -47z"/>
<path d="M1664 3966 c-3 -9 5 -28 19 -45 13 -16 36 -65 50 -109 30 -93 73
-164 150 -247 31 -33 61 -71 68 -85 6 -14 16 -35 22 -47 11 -24 27 -31 27 -12
0 17 -59 99 -111 155 -73 78 -124 164 -153 258 -14 47 -31 88 -36 91 -5 3 -15
16 -21 27 l-11 21 28 -20 c16 -11 40 -26 54 -33 43 -23 8 12 -39 39 -36 19
-42 20 -47 7z"/>
<path d="M1315 3934 c11 -8 32 -18 48 -21 15 -3 27 -9 27 -14 0 -12 39 -10 65
2 18 8 17 9 -4 5 -13 -3 -50 6 -82 20 -67 27 -83 30 -54 8z"/>
<path d="M1380 3936 c0 -2 7 -6 15 -10 8 -3 15 -1 15 4 0 6 -7 10 -15 10 -8 0
-15 -2 -15 -4z"/>
<path d="M1772 3903 c-10 -4 -8 -11 9 -29 12 -13 17 -24 11 -24 -8 0 -5 -14 8
-40 12 -23 25 -38 31 -35 5 4 1 19 -12 36 -30 42 -17 48 15 6 25 -33 27 -67 4
-67 -6 0 -7 -7 -4 -16 3 -8 2 -12 -4 -9 -6 3 -10 2 -10 -4 0 -5 -3 -17 -7 -27
-5 -13 -3 -16 10 -11 12 4 17 1 17 -11 0 -9 12 -30 26 -47 23 -28 24 -28 18
-6 -4 16 -3 21 5 17 6 -4 11 -1 11 6 0 9 3 9 10 -2 5 -8 7 -24 4 -36 -3 -12 1
-26 10 -33 14 -12 15 -10 9 20 -7 38 -31 99 -38 99 -2 0 -2 -7 2 -16 5 -15
-11 -33 -29 -34 -13 0 -9 38 5 52 27 26 40 59 28 71 -11 11 -15 0 -12 -33 1
-11 -3 -10 -14 4 -19 24 -19 36 -1 36 22 0 16 45 -10 75 -12 15 -28 24 -34 20
-6 -4 -20 1 -31 11 -15 13 -16 19 -7 26 14 8 1 10 -20 1z m108 -96 c0 -13 -29
12 -42 37 -10 19 -8 18 16 -3 14 -14 26 -29 26 -34z m-15 -107 c-5 -15 -10
-19 -17 -12 -5 5 -7 20 -3 32 5 15 10 19 17 12 5 -5 7 -20 3 -32z"/>
<path d="M1374 3875 c11 -8 31 -25 45 -38 15 -13 32 -22 39 -19 7 2 12 -3 12
-11 0 -9 7 -14 18 -11 21 5 66 -31 57 -46 -3 -6 0 -7 10 -4 14 6 14 8 -1 25
-27 30 2 22 39 -11 50 -43 58 -37 12 10 -32 33 -41 37 -58 29 -13 -8 -22 -8
-30 0 -10 10 -3 14 23 13 12 0 29 27 20 33 -6 3 -10 1 -10 -5 0 -6 -5 -8 -11
-5 -6 4 -16 -1 -23 -11 -12 -16 -15 -16 -50 6 -28 17 -34 25 -24 31 7 5 21 6
32 3 14 -5 16 -3 10 7 -5 9 2 7 20 -4 15 -10 30 -16 33 -14 2 3 -6 11 -19 18
-25 14 -68 19 -68 8 0 -16 -34 -18 -56 -4 -30 19 -45 19 -20 0z"/>
<path d="M1744 3858 c3 -13 6 -27 6 -31 0 -5 5 -5 11 -1 8 5 10 0 6 -17 -3
-13 -2 -30 2 -37 6 -10 10 -8 14 8 3 13 -3 38 -15 61 -22 43 -34 51 -24 17z"/>
<path d="M1481 3851 c-9 -6 -10 -11 -2 -15 6 -4 11 -3 11 3 0 6 7 7 17 4 11
-4 14 -3 9 5 -8 14 -16 15 -35 3z"/>
<path d="M1335 3830 c3 -5 8 -10 11 -10 2 0 4 5 4 10 0 6 -5 10 -11 10 -5 0
-7 -4 -4 -10z"/>
<path d="M1360 3816 c0 -14 98 -91 106 -83 3 2 -8 12 -23 22 -15 10 -40 29
-55 43 -16 14 -28 22 -28 18z"/>
<path d="M1900 3793 c0 -5 7 -18 15 -29 17 -22 20 -38 5 -29 -11 7 -14 -38 -3
-49 10 -10 31 -74 38 -118 8 -43 25 -61 25 -25 0 29 -29 128 -42 144 -6 7 -7
24 -4 38 5 18 1 34 -14 52 -11 14 -20 21 -20 16z"/>
<path d="M1797 3749 c-7 -28 -6 -31 10 -14 6 6 8 18 3 24 -5 9 -9 5 -13 -10z"/>
<path d="M1656 3751 c-4 -6 4 -23 18 -38 30 -32 34 -21 7 20 -11 18 -21 25
-25 18z"/>
<path d="M1487 3719 c7 -7 15 -10 18 -7 3 3 -2 9 -12 12 -14 6 -15 5 -6 -5z"/>
<path d="M1946 3705 c4 -8 8 -15 10 -15 2 0 4 7 4 15 0 8 -4 15 -10 15 -5 0
-7 -7 -4 -15z"/>
<path d="M1966 3655 c8 -37 14 -45 14 -19 0 10 -5 26 -10 34 -8 11 -9 7 -4
-15z"/>
<path d="M1471 3626 c2 -2 20 -6 39 -10 25 -4 31 -3 20 4 -14 9 -69 15 -59 6z"/>
<path d="M1353 3603 c-9 -23 78 -97 147 -125 41 -16 79 -22 150 -24 l95 -2
-95 8 c-68 5 -111 14 -151 32 -54 25 -139 91 -139 109 0 4 24 10 53 12 l52 3
-53 2 c-41 2 -54 -2 -59 -15z"/>
<path d="M1585 3611 c22 -6 3 -9 -70 -10 -79 -2 -95 -4 -75 -13 25 -10 151 -5
185 8 12 5 16 4 12 -3 -5 -7 0 -9 12 -6 11 3 28 0 38 -6 15 -9 13 -10 -12 -5
-21 5 -27 3 -20 -4 6 -5 18 -12 28 -14 10 -1 17 -7 15 -11 -2 -5 15 -15 37
-23 49 -17 48 -17 38 -1 -4 6 -8 17 -8 22 0 6 -9 10 -20 11 -46 2 -51 4 -37
12 18 12 -44 39 -104 46 -37 4 -41 3 -19 -3z"/>
<path d="M1994 3525 c5 -76 29 -157 52 -176 9 -7 4 10 -11 42 -16 36 -25 73
-26 109 0 30 -5 64 -10 75 -6 14 -8 -2 -5 -50z"/>
<path d="M1430 3551 c0 -4 26 -21 58 -37 40 -20 70 -29 102 -28 25 1 47 -2 50
-6 3 -5 50 -10 105 -13 55 -3 111 -8 125 -11 16 -4 13 0 -10 10 -20 9 -69 17
-115 19 -44 2 -100 8 -124 13 -24 6 -50 8 -58 5 -8 -3 -18 -2 -22 3 -9 13
-111 54 -111 45z"/>
<path d="M1471 3556 c3 -3 57 -17 119 -31 142 -33 203 -29 70 3 -99 24 -199
39 -189 28z"/>
<path d="M1608 3553 c6 -2 18 -2 25 0 6 3 1 5 -13 5 -14 0 -19 -2 -12 -5z"/>
<path d="M2142 3448 c3 -7 20 -57 38 -110 18 -54 36 -98 39 -98 4 0 -9 50 -28
110 -20 61 -39 110 -44 110 -5 0 -7 -6 -5 -12z"/>
<path d="M1900 3445 c0 -3 11 -10 24 -15 26 -9 141 -137 158 -176 8 -17 8 -27
0 -37 -7 -8 -9 -17 -5 -20 14 -15 23 -5 23 25 0 50 -125 207 -177 223 -13 3
-23 4 -23 0z"/>
<path d="M2121 3347 l-1 -98 40 -59 c46 -67 65 -110 31 -67 -12 15 -27 27 -34
27 -6 0 1 -13 16 -28 15 -15 27 -31 27 -36 0 -4 16 -32 35 -62 43 -67 116
-212 140 -279 22 -60 33 -75 52 -75 24 0 10 46 -51 172 -30 62 -57 124 -59
138 -4 23 -4 23 -6 -4 0 -17 22 -75 53 -140 59 -122 72 -156 58 -156 -5 0 -21
33 -37 73 -36 93 -66 153 -126 253 -50 84 -64 119 -29 74 42 -54 16 0 -41 85
-52 78 -59 94 -55 125 3 19 2 62 -3 95 -8 59 -8 58 -10 -38z"/>
<path d="M2140 3382 c0 -7 9 -35 20 -64 24 -62 24 -70 5 -44 -37 49 -9 -6 46
-91 50 -78 60 -100 56 -126 -2 -18 2 -44 9 -59 17 -34 29 -37 20 -5 -4 12 -8
41 -11 64 -2 29 -18 65 -52 115 -55 84 -60 94 -43 83 10 -6 11 -4 5 11 -4 10
-16 42 -27 69 -21 54 -28 65 -28 47z"/>
<path d="M1798 3323 c7 -3 16 -2 19 1 4 3 -2 6 -13 5 -11 0 -14 -3 -6 -6z"/>
<path d="M1889 3315 c47 -16 73 -33 31 -21 -14 4 -63 11 -110 15 -91 9 -150
-6 -150 -38 0 -41 139 -121 219 -127 46 -4 45 -3 -12 10 -32 7 -61 17 -65 21
-4 4 3 5 16 2 12 -3 22 -1 22 3 0 5 6 10 13 13 6 2 -1 1 -18 -1 -16 -3 -40 -5
-52 -5 -24 1 -88 42 -79 51 3 2 12 -1 21 -8 9 -7 19 -10 22 -6 4 4 1 11 -7 16
-23 15 4 12 47 -4 72 -26 123 -39 129 -33 4 3 22 0 41 -8 20 -8 45 -15 57 -14
29 1 -81 39 -121 42 -18 1 -33 5 -33 8 0 4 -12 10 -27 13 -83 20 -103 23 -103
14 0 -6 -7 -8 -15 -4 -8 3 -15 0 -15 -7 0 -7 -7 -3 -15 8 -14 18 -13 20 12 34
31 16 166 17 171 0 2 -5 19 -9 38 -9 24 0 34 -5 34 -15 0 -8 9 -15 20 -15 11
0 20 -4 20 -10 0 -13 5 -14 -81 15 -40 14 -98 27 -129 30 l-55 5 45 -11 c25
-6 82 -21 128 -35 45 -14 87 -22 92 -19 5 3 22 -1 37 -8 23 -12 30 -12 40 -2
9 10 4 19 -28 40 -23 14 -43 24 -45 22 -3 -2 12 -14 32 -26 20 -12 34 -25 30
-28 -3 -3 -14 1 -23 9 -10 9 -33 23 -52 33 -22 11 -30 20 -22 25 14 8 -24 26
-74 34 -18 4 -12 0 14 -9z"/>
<path d="M2250 3244 c0 -8 5 -12 10 -9 6 4 8 11 5 16 -9 14 -15 11 -15 -7z"/>
<path d="M1755 3220 c-8 -14 13 -22 31 -12 14 8 14 10 -5 15 -11 3 -23 1 -26
-3z"/>
<path d="M2120 3203 c0 -12 5 -25 11 -28 19 -12 22 3 5 27 l-16 22 0 -21z"/>
<path d="M2261 3204 c0 -11 3 -14 6 -6 3 7 2 16 -1 19 -3 4 -6 -2 -5 -13z"/>
<path d="M2281 3173 c0 -16 6 -59 14 -98 l14 -70 -6 85 c-4 47 -6 91 -6 98 0
6 -4 12 -9 12 -4 0 -8 -12 -7 -27z"/>
<path d="M1895 3170 c-4 -6 15 -10 52 -9 48 1 53 3 28 9 -44 11 -73 11 -80 0z"/>
<path d="M2084 3052 c-1 -164 -31 -297 -81 -354 -8 -9 -12 -22 -8 -27 8 -14
221 -15 230 -2 3 5 -6 26 -20 47 -14 21 -32 60 -40 88 -21 76 -38 222 -34 294
2 34 0 62 -5 62 -14 0 0 -238 19 -320 17 -74 51 -150 67 -150 4 0 8 -4 8 -9 0
-5 -49 -10 -110 -10 l-110 -1 25 35 c25 38 49 108 65 196 12 61 13 269 3 269
-5 0 -8 -53 -9 -118z"/>
<path d="M1995 3150 c-18 -8 -18 -9 5 -9 14 0 34 4 45 9 18 8 18 9 -5 9 -14 0
-34 -4 -45 -9z"/>
<path d="M2450 2426 c-15 -7 -23 -19 -20 -27 10 -29 11 -389 1 -408 -9 -15 -7
-20 9 -24 11 -3 20 -1 20 4 0 5 -3 9 -7 9 -5 0 -7 90 -5 201 2 142 -1 205 -9
215 -12 14 -12 14 32 18 8 1 11 -28 10 -94 -1 -67 2 -91 9 -80 5 8 9 58 9 110
0 52 -3 89 -6 81 -4 -9 -8 -10 -12 -3 -5 8 -14 7 -31 -2z"/>
<path d="M3203 2426 c-3 -4 0 -12 6 -16 7 -4 11 -11 10 -16 -8 -42 0 -45 48
-19 57 30 109 33 117 8 3 -10 5 -108 4 -218 l-2 -200 37 -1 c33 -1 37 2 31 19
-5 16 -7 183 -4 420 0 13 9 17 39 17 70 0 101 -10 101 -34 0 -12 -3 -16 -8
-10 -13 19 -50 34 -84 33 l-33 -1 38 -9 c21 -5 48 -14 60 -21 35 -19 47 -18
47 5 0 45 -7 46 -209 49 -106 2 -195 -1 -198 -6z m109 -16 c-18 -4 -42 -16
-52 -25 -19 -18 -20 -17 -20 6 0 22 4 24 53 26 45 1 47 0 19 -7z m123 -212 c0
-120 -3 -218 -7 -218 -3 0 -12 -2 -20 -5 -11 -4 -12 35 -10 214 3 204 2 220
-15 224 -10 2 -2 4 17 3 l35 -1 0 -217z"/>
<path d="M4230 2423 c-12 -8 -19 -21 -16 -28 8 -23 10 -391 1 -405 -4 -7 -2
-16 6 -21 19 -12 29 -11 29 2 0 5 -3 8 -7 6 -5 -3 -7 87 -5 200 3 148 0 208
-8 219 -8 9 -9 14 -2 14 6 0 17 3 26 6 14 5 16 -6 16 -85 0 -54 4 -91 10 -91
6 0 10 38 10 94 0 84 -2 94 -19 99 -11 3 -29 -2 -41 -10z"/>
<path d="M894 2421 c4 -6 14 -11 22 -11 9 0 52 -78 115 -207 56 -115 103 -203
105 -198 2 6 -43 102 -99 215 -86 172 -106 206 -126 208 -15 2 -21 0 -17 -7z"/>
<path d="M1325 2420 c3 -5 14 -10 23 -10 15 0 17 -18 14 -197 -3 -198 0 -243
17 -243 6 0 5 15 -1 36 -9 34 -7 362 2 394 3 8 10 18 15 22 6 4 -9 8 -33 8
-26 0 -41 -4 -37 -10z"/>
<path d="M880 2403 c0 -5 11 -28 24 -53 39 -77 90 -181 136 -282 34 -72 51
-98 68 -102 23 -7 42 -1 42 13 0 4 -13 6 -30 3 -17 -2 -30 0 -30 6 0 14 -198
422 -205 422 -3 0 -5 -3 -5 -7z"/>
<path d="M1311 2393 c0 -12 -5 -25 -11 -28 -5 -3 -10 -13 -10 -21 0 -8 5 -12
11 -9 7 5 9 -50 7 -179 -2 -151 -1 -183 10 -169 8 12 12 61 11 167 -1 130 -14
302 -18 239z"/>
<path d="M2052 2391 c-8 -5 -12 -21 -10 -37 2 -25 7 -29 32 -29 23 0 31 6 39
29 7 21 6 30 -4 37 -18 11 -40 11 -57 0z m48 -31 c0 -19 -25 -34 -41 -24 -13
8 -11 42 4 47 20 7 37 -4 37 -23z"/>
<path d="M1258 2308 c-10 -24 -18 -47 -18 -51 0 -5 -7 -15 -15 -23 -8 -8 -11
-22 -8 -31 4 -11 3 -14 -5 -9 -11 7 -14 3 -16 -26 -1 -7 -7 -18 -14 -24 -8 -5
-12 -21 -10 -35 3 -23 4 -23 21 10 9 19 17 40 17 48 0 7 5 13 10 13 6 0 10 11
10 24 0 13 7 26 15 30 8 3 15 14 15 25 0 11 5 21 11 23 6 2 9 18 7 36 l-3 32
-17 -42z"/>
<path d="M890 2247 c0 -50 4 -76 10 -72 6 4 10 -15 10 -49 0 -30 -4 -56 -9
-58 -4 -1 -11 -25 -13 -52 -4 -30 -2 -43 3 -35 5 8 9 30 10 49 l1 35 9 -40 c5
-22 14 -44 20 -50 7 -7 8 -1 2 20 -4 17 -7 83 -6 148 1 70 -2 117 -7 117 -6 0
-10 8 -10 18 0 9 -5 24 -10 32 -7 10 -10 -9 -10 -63z m17 -49 c-3 -7 -5 -2 -5
12 0 14 2 19 5 13 2 -7 2 -19 0 -25z"/>
<path d="M2150 2306 c0 -2 8 -10 18 -17 15 -13 16 -12 3 4 -13 16 -21 21 -21
13z"/>
<path d="M2815 2289 c-4 -6 -5 -12 -2 -15 2 -3 7 2 10 11 7 17 1 20 -8 4z"/>
<path d="M3926 2288 c3 -5 10 -6 15 -3 13 9 11 12 -6 12 -8 0 -12 -4 -9 -9z"/>
<path d="M1540 2280 c0 -5 -9 -10 -20 -10 -16 0 -19 -6 -16 -29 4 -38 13 -51
36 -51 10 0 22 -5 25 -11 4 -6 12 -8 19 -6 20 8 20 -98 -1 -133 -9 -16 -23
-30 -29 -30 -7 0 -19 -3 -27 -6 -27 -10 -57 32 -57 78 0 46 -6 48 -13 3 -5
-37 16 -81 42 -90 25 -8 93 4 86 15 -3 4 2 11 10 14 13 5 15 21 13 83 -3 70
-5 79 -25 88 -13 5 -23 13 -23 18 0 4 -4 6 -9 3 -4 -3 -17 1 -27 9 -18 14 -18
15 4 21 12 3 22 10 22 15 0 16 37 10 61 -10 21 -17 24 -29 25 -88 3 -170 4
-193 12 -193 4 0 5 60 2 133 -4 99 -9 139 -20 152 -13 15 -13 17 -1 13 8 -2
24 -17 35 -32 18 -23 22 -45 24 -139 2 -62 7 -115 10 -119 11 -11 3 192 -9
235 -7 26 -20 44 -42 57 -33 21 -107 27 -107 10z"/>
<path d="M1763 2277 c30 -12 29 -5 31 -184 0 -62 6 -116 11 -122 12 -12 9 208
-4 309 0 6 -16 10 -33 9 l-33 -1 28 -11z"/>
<path d="M1880 2275 c0 -9 -6 -12 -15 -9 -10 4 -15 0 -15 -11 0 -9 -4 -13 -10
-10 -6 4 -10 -5 -10 -21 l0 -27 21 27 c24 31 64 34 79 7 15 -29 13 -234 -2
-250 -11 -11 -10 -13 3 -8 9 3 23 0 30 -6 12 -10 12 -9 1 3 -8 9 -12 53 -12
135 0 125 -4 141 -45 163 -18 10 -18 11 -2 12 63 1 87 -50 87 -182 0 -57 4
-108 8 -115 8 -13 5 179 -4 234 -3 18 -16 41 -31 53 -30 24 -83 27 -83 5z"/>
<path d="M2070 2277 l-25 -9 0 -148 c0 -84 4 -142 8 -134 5 8 7 73 5 145 -2
71 0 129 4 129 3 0 12 2 20 5 10 4 13 -23 13 -140 0 -80 -3 -145 -7 -145 -5 0
-8 -5 -8 -11 0 -8 4 -9 13 0 8 6 16 9 18 7 2 -3 2 65 -1 149 -3 84 -7 155 -10
157 -3 3 -16 0 -30 -5z"/>
<path d="M2230 2281 c0 -5 -9 -11 -20 -14 -22 -6 -40 -44 -40 -83 0 -37 49
-81 105 -95 26 -6 61 -24 78 -38 l32 -26 -16 25 c-10 15 -39 33 -75 46 -77 28
-117 64 -112 101 2 15 8 27 15 26 7 -2 10 3 7 11 -8 20 41 29 83 15 20 -6 42
-24 54 -43 11 -18 19 -24 19 -15 0 23 -48 68 -79 75 -44 10 -47 12 -16 13 17
0 49 -8 73 -19 42 -19 42 -20 37 -62 -4 -31 -3 -38 4 -23 14 29 13 73 -1 82
-43 27 -148 44 -148 24z"/>
<path d="M2536 2258 c-34 -29 -38 -37 -28 -54 9 -14 12 -15 13 -4 1 8 1 18 0
23 0 4 6 7 14 7 8 0 15 6 15 13 0 9 11 13 30 12 17 -1 31 -4 33 -6 41 -56 70
-209 48 -255 -10 -22 -9 -26 3 -21 8 3 16 1 19 -6 10 -30 -6 126 -19 189 -15
73 -38 107 -79 117 -16 4 -14 5 7 6 32 1 81 -38 96 -76 6 -16 16 -70 21 -122
6 -52 15 -99 21 -105 8 -8 10 -4 6 14 -3 14 -8 53 -11 87 -13 135 -48 198
-116 209 -28 5 -40 0 -73 -28z"/>
<path d="M2890 2281 c0 -5 -8 -11 -17 -15 -10 -3 -24 -9 -32 -12 -9 -5 -11 -3
-6 6 5 9 4 11 -4 6 -6 -4 -9 -12 -5 -17 3 -5 0 -16 -6 -24 -10 -12 -6 -15 17
-20 15 -4 36 -10 45 -16 10 -5 24 -9 31 -9 8 0 19 -10 25 -22 11 -23 11 -23
11 3 1 21 -8 30 -44 48 -25 12 -45 24 -45 26 0 3 19 13 42 24 l42 19 20 -26
c18 -23 22 -45 27 -157 l5 -130 2 131 c2 117 0 134 -18 156 -10 14 -16 28 -13
32 3 3 -12 6 -35 6 -23 0 -42 -4 -42 -9z m-30 -36 c-6 -8 -9 -19 -5 -25 3 -5
-1 -10 -9 -10 -20 0 -20 9 1 32 19 21 31 25 13 3z"/>
<path d="M3640 2280 c8 -5 23 -10 33 -10 15 0 17 -13 18 -117 0 -132 5 -149
40 -169 28 -15 12 -18 -25 -4 -43 16 -56 57 -56 174 0 58 -3 107 -7 109 -12 8
-4 -214 9 -246 14 -35 44 -57 80 -57 38 0 88 48 88 84 0 16 -4 25 -10 21 -6
-4 -8 -10 -6 -14 9 -14 -52 -64 -69 -58 -26 11 -35 54 -35 178 l0 119 -37 0
c-28 0 -34 -3 -23 -10z"/>
<path d="M3832 2135 c1 -85 5 -155 10 -155 4 0 7 67 6 148 -3 138 -2 148 15
144 15 -4 17 -19 17 -132 0 -71 3 -135 6 -144 4 -11 1 -16 -10 -16 -9 0 -16
-4 -16 -10 0 -16 27 -11 34 6 3 9 6 76 6 149 0 73 -3 140 -6 149 -4 9 -18 16
-34 16 l-28 0 0 -155z"/>
<path d="M4008 2274 c-34 -18 -48 -43 -48 -84 0 -44 43 -84 111 -103 60 -18
109 -61 90 -80 -6 -6 -11 -7 -11 -3 0 5 -7 3 -15 -4 -21 -17 -87 -18 -118 -1
-14 7 -33 29 -43 47 -20 37 -26 35 -42 -13 -9 -28 -8 -33 13 -47 14 -9 32 -16
42 -16 13 1 9 6 -12 17 -39 21 -38 18 -30 43 6 20 7 20 27 -5 28 -36 73 -57
125 -57 36 0 49 5 69 29 28 32 31 78 9 110 -9 12 -43 32 -76 44 -76 28 -109
53 -102 78 11 44 82 34 126 -19 15 -17 27 -25 27 -18 0 22 -51 65 -90 77 l-35
11 44 -5 c24 -3 56 -12 71 -20 25 -13 28 -19 24 -57 l-4 -43 10 39 c12 45 2
62 -47 83 -41 17 -81 16 -115 -3z m69 -129 c73 -23 103 -49 103 -88 l-1 -32
-20 27 c-14 19 -39 33 -77 44 -67 20 -112 60 -112 100 l0 28 28 -31 c16 -19
47 -38 79 -48z"/>
<path d="M4393 2276 c20 -8 44 -19 53 -27 25 -20 43 -76 49 -147 8 -88 15
-135 21 -130 11 11 -20 216 -37 250 -20 40 -63 68 -101 68 -17 -1 -14 -4 15
-14z"/>
<path d="M4649 2265 c-39 -25 -56 -54 -36 -59 6 -2 27 -8 45 -14 19 -6 40 -8
48 -5 8 3 14 0 14 -7 0 -6 7 -18 15 -26 21 -21 11 -89 -18 -119 -33 -34 -62
-40 -86 -16 -42 42 -17 139 37 142 9 0 4 5 -13 10 -26 8 -34 5 -63 -24 -63
-64 -53 -157 20 -179 35 -10 45 -9 76 8 47 25 70 67 71 129 0 52 -23 95 -52
95 -8 0 -27 10 -43 22 -23 18 -27 19 -21 5 4 -11 1 -17 -8 -17 -19 0 -19 14 0
30 8 7 15 9 15 5 0 -4 10 -1 23 8 12 8 38 17 57 21 19 3 29 3 22 0 -10 -5 -10
-10 3 -24 11 -12 19 -48 24 -107 l8 -88 2 80 c0 53 -4 89 -14 108 -18 36 0 32
28 -5 16 -21 21 -48 25 -142 4 -103 3 -116 -12 -116 -9 0 -16 -4 -16 -8 0 -5
7 -9 15 -9 8 0 15 4 15 8 0 5 7 6 15 3 8 -4 15 -1 15 5 0 6 -4 11 -10 11 -6 0
-10 40 -10 101 0 73 -5 111 -16 135 -31 65 -109 82 -175 39z m-28 -119 c-25
-26 -31 -89 -12 -124 16 -31 55 -38 89 -16 21 14 24 14 14 2 -7 -9 -26 -21
-41 -28 -41 -17 -97 10 -106 51 -9 39 11 94 42 119 35 27 41 25 14 -4z"/>
<path d="M4868 2278 c14 -18 24 -237 12 -279 -9 -31 -8 -32 5 -15 17 23 22
245 6 275 -8 15 -6 17 17 13 l27 -4 0 -141 c0 -80 -4 -145 -10 -149 -14 -10 1
-22 19 -15 11 5 13 13 7 34 -11 39 -3 224 11 240 7 9 26 13 47 11 31 -3 36 -7
39 -31 2 -16 -2 -35 -9 -43 -9 -11 -8 -14 9 -14 11 0 33 5 48 10 23 9 26 14
20 43 -9 47 -48 77 -99 76 l-42 -1 45 -9 c49 -10 77 -32 82 -68 2 -16 -3 -26
-18 -31 -18 -7 -20 -4 -21 28 -1 42 -26 65 -63 58 -14 -2 -36 2 -50 9 -33 19
-97 20 -82 3z"/>
<path d="M3005 2251 c28 -30 29 -36 35 -150 3 -66 8 -122 11 -126 4 -3 5 22 3
57 -2 35 -5 93 -8 131 -4 69 -14 90 -50 109 -16 8 -14 3 9 -21z"/>
<path d="M1748 2157 c2 -63 -1 -131 -7 -153 -9 -35 -9 -37 4 -20 11 15 15 50
15 140 0 67 -4 127 -8 133 -4 7 -6 -38 -4 -100z"/>
<path d="M4303 2234 c-31 -36 -31 -37 -29 -145 0 -60 -2 -109 -6 -109 -5 0 -8
-5 -8 -11 0 -6 6 -9 13 -6 7 2 12 22 13 48 2 163 5 193 14 179 8 -12 10 -9 10
13 0 16 4 26 9 22 6 -3 13 1 18 9 8 14 24 19 54 17 36 -2 79 -182 59 -249 -5
-19 -5 -32 1 -32 23 0 23 124 -1 211 -26 94 -91 118 -147 53z"/>
<path d="M1476 2234 c-10 -26 -7 -34 12 -34 12 0 14 2 4 8 -7 5 -10 16 -6 25
3 9 4 17 1 17 -3 0 -8 -7 -11 -16z"/>
<path d="M2485 2095 c0 -71 -4 -121 -9 -117 -5 3 -6 0 -2 -6 4 -6 12 -9 19 -6
9 3 11 36 9 122 -2 64 -7 120 -10 124 -4 4 -7 -49 -7 -117z"/>
<path d="M2200 2203 c0 -17 24 -32 90 -58 80 -31 100 -50 100 -91 0 -28 -5
-36 -37 -51 -71 -33 -134 -15 -173 49 l-19 32 -11 -28 c-20 -54 -10 -69 65
-91 36 -11 55 -12 95 -2 29 7 50 17 50 25 0 7 4 11 10 7 15 -9 41 52 34 79 -8
35 -32 53 -104 81 -35 14 -71 32 -82 41 -10 10 -18 12 -18 7z m44 -224 c35
-16 37 -18 11 -13 -54 10 -106 36 -100 52 3 7 5 19 5 25 0 7 10 -1 22 -17 12
-15 40 -37 62 -47z"/>
<path d="M1451 2146 c-45 -47 -54 -110 -20 -150 30 -34 86 -44 114 -21 11 9
14 13 6 9 -26 -14 -85 -5 -105 16 -28 28 -27 86 2 128 13 17 28 32 34 32 6 0
6 -6 -2 -15 -9 -10 -9 -15 -1 -15 6 0 11 4 11 9 0 5 12 14 28 19 15 6 20 11
10 11 -9 1 -22 3 -30 6 -7 3 -29 -10 -47 -29z"/>
<path d="M2802 2146 c-37 -42 -46 -68 -38 -110 9 -49 39 -71 93 -70 34 1 50 7
69 27 13 14 24 31 24 37 0 5 4 10 9 10 14 0 23 56 15 93 -6 28 -8 29 -15 12
-4 -11 -8 -34 -8 -52 -1 -35 -34 -78 -68 -88 -29 -8 -63 29 -63 71 0 35 33 84
57 84 22 0 14 6 -19 14 -21 5 -31 0 -56 -28z m29 -2 c-47 -60 -13 -161 51
-152 20 3 25 1 18 -6 -5 -5 -26 -10 -46 -9 -82 2 -107 93 -43 159 39 41 48 44
20 8z"/>
<path d="M893 2120 c0 -25 2 -35 4 -22 2 12 2 32 0 45 -2 12 -4 2 -4 -23z"/>
<path d="M1148 2066 c-2 -20 -1 -36 3 -36 10 0 17 47 9 60 -4 7 -9 -3 -12 -24z"/>
<path d="M4776 2015 c-4 -14 -2 -33 3 -43 8 -13 10 -8 11 26 0 48 -5 54 -14
17z"/>
<path d="M900 1970 c0 -5 5 -10 11 -10 5 0 7 5 4 10 -3 6 -8 10 -11 10 -2 0
-4 -4 -4 -10z"/>
<path d="M3010 1970 c0 -5 7 -10 15 -10 8 0 15 5 15 10 0 6 -7 10 -15 10 -8 0
-15 -4 -15 -10z"/>
<path d="M4470 1970 c0 -5 5 -10 10 -10 6 0 10 5 10 10 0 6 -4 10 -10 10 -5 0
-10 -4 -10 -10z"/>
<path d="M4025 1960 c27 -12 43 -12 25 0 -8 5 -22 9 -30 9 -10 0 -8 -3 5 -9z"/>
<path d="M1280 1772 c-63 -31 -50 -100 24 -122 68 -20 86 -29 86 -43 0 -36
-58 -49 -98 -21 -12 8 -22 11 -22 5 0 -15 35 -31 69 -31 34 0 61 22 61 51 0
20 -7 23 -92 54 -54 19 -68 44 -44 80 14 21 25 25 64 25 27 0 57 -7 70 -16 13
-9 22 -11 22 -4 0 12 -60 40 -87 40 -10 0 -34 -8 -53 -18z"/>
<path d="M1573 1782 c-6 -4 -27 -47 -47 -97 -20 -49 -41 -98 -46 -107 -10 -18
-4 -48 11 -48 5 0 20 17 33 38 22 35 27 38 61 34 27 -3 36 -1 31 7 -4 6 -24
10 -43 8 -30 -2 -39 -8 -52 -34 -16 -33 -31 -43 -31 -20 0 6 10 32 21 57 11
25 30 69 41 98 29 77 44 67 95 -58 49 -120 46 -110 33 -110 -5 0 -17 16 -25
37 -8 20 -18 34 -20 31 -9 -9 24 -75 40 -82 26 -9 28 19 6 70 -12 25 -21 50
-21 55 0 5 -12 33 -26 63 -26 55 -42 70 -61 58z"/>
<path d="M1754 1777 c-2 -7 -3 -62 -2 -123 l3 -109 78 -3 c72 -3 77 -1 77 18
0 18 -6 20 -55 20 l-55 0 0 99 c0 81 -3 100 -16 105 -22 8 -24 8 -30 -7z m31
-102 c1 -52 3 -96 6 -99 3 -3 29 -6 57 -7 78 -3 63 -19 -18 -19 l-70 0 1 110
c0 76 4 110 12 110 8 0 12 -30 12 -95z"/>
<path d="M2025 1771 c-47 -21 -65 -53 -65 -117 0 -93 77 -143 167 -109 51 20
73 54 73 115 0 59 -22 95 -70 114 -50 20 -56 20 -105 -3z m130 -27 c44 -48 44
-120 0 -168 -34 -36 -115 -37 -150 -2 -45 45 -45 127 0 172 35 35 116 34 150
-2z"/>
<path d="M2045 1751 c-46 -20 -64 -79 -41 -135 30 -72 115 -74 150 -2 16 32
17 44 7 76 -6 21 -17 43 -24 49 -20 16 -68 22 -92 12z m88 -33 c24 -28 23
-100 -2 -122 -25 -23 -76 -23 -101 -1 -15 13 -20 31 -20 66 0 39 4 51 26 68
31 24 70 20 97 -11z"/>
<path d="M2271 1777 c-13 -13 -15 -215 -2 -236 7 -11 13 -12 23 -3 10 8 13 33
12 86 -1 42 2 73 7 70 5 -3 28 -37 51 -75 38 -64 70 -94 91 -82 8 5 10 237 1
246 -3 3 -12 3 -20 0 -11 -4 -14 -24 -12 -82 l2 -76 3 73 c6 114 23 85 23 -38
0 -141 -10 -143 -93 -13 l-62 97 -3 -97 c-1 -53 -7 -97 -11 -97 -5 0 -10 50
-10 110 -2 99 0 110 16 110 11 0 31 -23 52 -58 52 -85 91 -137 91 -120 0 8 -9
23 -20 33 -11 10 -20 21 -20 25 0 14 -80 128 -94 133 -7 3 -19 0 -25 -6z"/>
<path d="M2728 1779 c-10 -5 -18 -6 -19 -2 -2 22 -18 -37 -18 -67 -1 -23 -8
-42 -21 -53 -14 -11 -20 -29 -20 -57 0 -34 4 -42 30 -55 28 -15 67 -14 90 0 6
4 24 1 41 -5 23 -10 32 -10 44 0 12 10 13 16 4 27 -7 8 -18 12 -26 9 -17 -7
-16 12 1 43 8 14 12 31 9 38 -9 23 -31 14 -47 -19 -19 -36 -19 -38 -7 -38 5 0
12 14 16 30 4 17 11 30 16 30 13 0 11 -21 -5 -52 -15 -28 -10 -38 24 -51 9 -3
4 -6 -12 -6 -15 -1 -30 4 -34 10 -4 8 -9 8 -17 0 -14 -14 -72 -14 -98 -1 -28
16 -26 73 5 97 18 15 22 26 18 51 -5 39 12 62 47 62 57 0 71 -59 21 -85 -34
-18 -36 -24 -14 -51 15 -18 15 -18 9 4 -5 17 0 28 19 43 28 22 35 69 14 87
-22 17 -52 22 -70 11z"/>
<path d="M3120 1780 c0 -5 5 -10 10 -10 6 0 10 5 10 10 0 6 -4 10 -10 10 -5 0
-10 -4 -10 -10z"/>
<path d="M3365 1783 c-74 -19 -107 -127 -60 -199 37 -57 127 -66 179 -17 30
27 30 46 0 52 -15 3 -16 1 -6 -12 11 -13 9 -19 -9 -36 -35 -32 -100 -29 -140
7 -28 25 -31 33 -31 82 1 48 5 58 32 83 23 21 40 27 74 27 44 0 99 -30 84 -46
-5 -4 -16 0 -25 9 -29 25 -68 30 -101 13 -35 -18 -42 -33 -42 -88 0 -56 46
-103 92 -94 32 6 62 25 53 34 -2 3 -10 0 -17 -5 -37 -30 -103 -11 -114 32 -8
34 3 90 22 106 20 16 69 14 96 -5 30 -22 48 -20 48 4 0 35 -81 67 -135 53z"/>
<path d="M3824 1775 c-3 -6 -3 -62 -2 -125 l3 -114 65 3 c77 3 113 20 130 61
27 65 7 140 -43 163 -42 19 -147 28 -153 12z m135 -16 c81 -28 81 -170 0 -198
-18 -6 -54 -11 -80 -11 l-49 0 0 110 0 110 49 0 c26 0 62 -5 80 -11z"/>
<path d="M3855 1740 c4 -6 11 -8 16 -5 14 9 11 15 -7 15 -8 0 -12 -5 -9 -10z"/>
<path d="M3920 1740 c19 -5 43 -18 52 -30 18 -22 24 -76 10 -96 -11 -16 -48
-34 -71 -34 -12 0 -21 -5 -21 -10 0 -13 47 -3 77 16 27 17 37 52 29 99 -8 41
-39 65 -81 64 l-30 -1 35 -8z"/>
<path d="M3851 1658 c0 -65 11 -109 22 -92 3 6 2 16 -3 24 -4 7 -6 37 -3 65 4
34 1 55 -6 59 -8 5 -11 -12 -10 -56z"/>
<path d="M4100 1775 c-11 -13 -11 -216 0 -230 5 -6 47 -9 100 -7 79 3 91 6 88
20 -3 14 -17 18 -75 20 -58 2 -73 6 -76 20 -3 12 -5 11 -6 -5 -1 -22 3 -23 74
-23 43 0 75 -4 75 -10 0 -6 -36 -10 -87 -10 l-88 0 0 110 0 110 83 0 c48 0 82
-4 82 -10 0 -6 -30 -10 -70 -10 -38 0 -70 -3 -70 -7 0 -8 98 -6 138 3 12 2 22
11 22 18 0 25 -170 35 -190 11z"/>
<path d="M4361 1781 c-8 -5 -11 -43 -9 -127 2 -98 6 -119 18 -119 12 0 16 17
20 75 l5 75 24 -65 c13 -36 29 -71 34 -78 16 -20 40 9 62 75 22 68 24 71 33
56 4 -6 8 6 8 27 1 22 -2 37 -7 34 -5 -3 -9 -13 -9 -23 0 -9 -4 -21 -8 -26 -5
-6 -19 -38 -32 -73 -12 -34 -27 -61 -32 -60 -9 3 -49 91 -71 158 -11 32 -12
27 -15 -62 -4 -136 -22 -125 -22 12 0 99 2 110 18 110 14 0 26 -23 52 -95 23
-63 38 -91 45 -84 7 7 6 12 -1 17 -6 4 -19 32 -29 62 -32 99 -55 129 -84 111z"/>
<path d="M3070 1693 c-18 -48 -39 -99 -46 -112 -12 -23 -9 -51 6 -51 9 0 36
31 43 51 4 12 20 18 52 21 49 3 65 -5 65 -34 0 -9 9 -22 19 -27 32 -17 34 15
6 88 -42 108 -59 144 -62 134 -2 -5 12 -45 30 -89 19 -43 37 -89 41 -101 12
-37 -12 -27 -28 12 -14 32 -19 35 -56 35 -52 0 -76 -13 -84 -45 -4 -14 -11
-25 -16 -25 -15 0 -13 5 31 113 22 54 39 103 37 108 -2 5 -19 -30 -38 -78z"/>
<path d="M3633 1768 c-5 -7 -20 -40 -33 -73 -13 -33 -32 -77 -42 -97 -19 -39
-15 -68 8 -68 8 0 21 17 31 38 26 56 26 59 4 33 -12 -13 -21 -29 -21 -37 0 -8
-7 -14 -14 -14 -12 0 -9 12 11 58 14 31 34 81 45 110 14 37 25 52 35 50 10 -2
34 -45 59 -108 50 -120 47 -110 34 -110 -5 0 -17 16 -25 37 -8 20 -18 34 -20
31 -3 -3 1 -21 9 -40 14 -33 42 -55 54 -43 7 6 -28 109 -63 189 -25 57 -50 72
-72 44z"/>
<path d="M4506 1705 c-16 -41 -26 -78 -23 -81 3 -3 8 5 12 18 28 89 48 128 65
128 17 0 19 -9 17 -110 -1 -60 -5 -110 -9 -110 -5 0 -8 16 -8 36 0 21 -4 33
-10 29 -12 -8 -13 -55 -1 -74 8 -12 12 -13 26 -1 13 11 15 32 13 124 -3 110
-3 111 -28 114 -23 3 -28 -4 -54 -73z"/>
<path d="M4646 1772 c-3 -5 7 -21 21 -38 25 -28 25 -28 9 -2 -18 31 -20 38 -7
38 5 0 23 -22 41 -50 18 -27 37 -50 44 -49 7 0 7 2 -1 6 -7 2 -13 9 -13 14 0
5 -12 27 -26 49 -25 37 -56 52 -68 32z"/>
<path d="M4799 1758 c-7 -13 -19 -34 -27 -48 -14 -25 -14 -25 4 -4 11 11 26
31 35 45 9 13 20 21 23 18 4 -4 -11 -34 -34 -67 -32 -49 -40 -70 -40 -107 0
-25 -4 -45 -10 -45 -5 0 -10 21 -10 48 0 36 -6 54 -26 77 -24 29 -25 29 -8 2
10 -17 16 -46 16 -76 -1 -32 4 -53 13 -61 25 -21 45 5 45 58 0 35 9 58 40 108
22 35 40 66 40 69 0 3 -11 5 -25 5 -15 0 -29 -8 -36 -22z"/>
<path d="M1298 1753 c-10 -2 -18 -9 -18 -14 0 -6 7 -6 19 1 28 14 52 12 73 -7
10 -9 18 -11 18 -5 0 24 -48 37 -92 25z"/>
<path d="M2722 1743 c-6 -11 -6 -27 -1 -42 9 -22 11 -22 32 -8 29 19 30 61 0
65 -13 2 -25 -4 -31 -15z m43 -19 c0 -10 -8 -20 -17 -22 -18 -3 -26 27 -11 42
12 11 28 0 28 -20z"/>
<path d="M1580 1731 c0 -11 4 -22 9 -25 5 -3 14 -19 19 -36 11 -29 10 -30 -18
-30 -28 0 -29 2 -24 33 6 35 -8 21 -20 -20 -7 -22 -4 -23 39 -23 53 0 53 3 20
83 -17 41 -25 47 -25 18z"/>
<path d="M3102 1690 c-11 -33 -17 -60 -13 -60 5 0 14 20 21 45 7 25 16 45 20
45 4 0 13 -21 21 -47 7 -26 15 -41 17 -35 4 14 -29 112 -38 112 -3 0 -16 -27
-28 -60z"/>
<path d="M3650 1736 c0 -8 9 -31 21 -50 l21 -36 -24 -9 c-22 -10 -22 -10 6
-10 31 -1 32 9 1 82 -16 39 -25 47 -25 23z"/>
<path d="M1405 1720 c-3 -5 -1 -10 4 -10 6 0 11 5 11 10 0 6 -2 10 -4 10 -3 0
-8 -4 -11 -10z"/>
<path d="M1274 1702 c4 -7 29 -18 56 -26 75 -22 90 -33 90 -66 0 -39 -32 -60
-92 -60 -36 0 -54 6 -69 21 -17 17 -19 23 -8 30 7 4 10 11 6 15 -4 4 -12 3
-18 -3 -35 -35 42 -90 111 -78 52 9 83 34 83 68 0 39 -27 64 -87 82 -28 9 -57
19 -65 22 -8 3 -11 1 -7 -5z"/>
<path d="M3621 1669 c-14 -40 -14 -39 2 -39 7 0 13 15 14 35 2 43 -2 44 -16 4z"/>
<path d="M4130 1680 c0 -5 5 -10 11 -10 5 0 7 5 4 10 -3 6 -8 10 -11 10 -2 0
-4 -4 -4 -10z"/>
<path d="M4180 1680 c-19 -5 -10 -8 35 -11 33 -3 62 -4 64 -2 16 11 -66 22
-99 13z"/>
<path d="M2698 1649 c-21 -12 -24 -59 -6 -77 14 -14 47 -15 66 -3 11 7 8 17
-13 50 -15 22 -28 41 -29 41 0 0 -9 -5 -18 -11z m36 -34 c23 -35 20 -47 -11
-43 -28 3 -40 25 -29 54 8 21 22 17 40 -11z"/>
<path d="M4148 1652 c-41 -9 -13 -17 48 -14 36 2 64 5 62 7 -6 5 -93 11 -110
7z"/>
<path d="M3118 1633 c7 -3 16 -2 19 1 4 3 -2 6 -13 5 -11 0 -14 -3 -6 -6z"/>
<path d="M3630 1610 c0 -5 11 -10 25 -10 14 0 25 5 25 10 0 6 -11 10 -25 10
-14 0 -25 -4 -25 -10z"/>
</g>
</svg>