<svg xmlns="http://www.w3.org/2000/svg" viewBox="0 0 600 600">
<g transform="translate(0,600) scale(0.1,-0.1)" fill="currentColor" stroke="none">
<path d="M3210 4540 c0 -7 270 -10 755 -10 l755 0 0 -112 0 -112 -27 25 c-75
69 -92 82 -139 109 -27 16 -77 36 -110 45 -82 21 -348 39 -371 24 -17 -10 -18
-57 -13 -877 5 -806 6 -869 23 -899 10 -18 22 -33 27 -33 5 0 -1 17 -13 38
l-22 37 -3 863 -3 862 23 1 c66 4 220 -3 273 -12 125 -21 196 -55 285 -138 51
-47 79 -62 81 -43 4 54 6 202 2 219 l-5 23 -759 0 c-488 0 -759 -4 -759 -10z"/>
<path d="M2007 4532 c7 -5 56 -8 108 -8 52 1 95 -2 95 -5 0 -4 39 -87 86 -185
47 -99 110 -228 139 -289 29 -60 90 -186 135 -280 45 -93 108 -224 140 -290
32 -66 90 -187 130 -270 39 -82 88 -184 107 -225 20 -41 44 -88 54 -104 l18
-30 107 219 c58 121 130 270 159 330 29 61 85 178 125 260 143 297 203 421
230 480 15 33 62 130 104 215 l76 155 -97 3 c-185 5 -328 -41 -436 -141 -31
-29 -59 -51 -62 -49 -3 3 -6 51 -7 106 l-2 101 -5 -100 c-9 -148 -6 -150 75
-76 108 99 217 139 397 148 64 3 117 4 117 1 0 -3 -22 -51 -50 -107 -27 -56
-50 -103 -50 -105 0 -2 -39 -84 -86 -182 -81 -168 -124 -257 -296 -614 -39
-80 -102 -210 -140 -290 -38 -80 -90 -187 -116 -238 l-45 -93 -89 183 c-49
101 -103 212 -120 248 -17 36 -80 166 -139 289 -60 123 -109 225 -109 226 0 1
-50 106 -111 231 -61 126 -140 289 -175 362 l-63 132 -108 0 c-59 0 -102 -4
-96 -8z"/>
<path d="M2001 4519 c-1 -4 19 -50 44 -103 l45 -97 0 -493 c0 -291 -4 -496 -9
-501 -6 -6 -4 -17 5 -29 12 -17 14 45 14 490 0 328 4 514 10 522 6 6 7 10 4 8
-3 -3 -30 43 -59 102 -30 59 -54 104 -54 101z"/>
<path d="M3822 4465 c-1 -5 -2 -374 -2 -820 0 -874 -1 -904 -52 -944 -41 -34
-15 -41 146 -41 155 0 216 6 216 21 0 4 -15 3 -32 -2 -39 -11 -328 -11 -328 0
0 4 9 16 20 26 38 34 40 90 38 945 -2 454 -4 821 -6 815z"/>
<path d="M3742 4309 c-33 -68 -101 -209 -152 -314 -51 -104 -114 -235 -140
-290 -26 -55 -89 -185 -140 -290 -51 -104 -105 -217 -120 -250 -15 -33 -57
-120 -94 -194 -36 -73 -66 -140 -66 -147 0 -8 16 -46 35 -84 l35 -70 -105 0
c-66 0 -105 4 -105 10 0 6 -47 108 -105 227 -58 118 -105 217 -105 218 0 2
-52 110 -115 240 -63 131 -115 239 -115 240 0 1 -51 108 -114 236 -62 129
-128 267 -147 307 -18 41 -35 69 -37 64 -1 -5 20 -56 47 -113 50 -106 81 -172
331 -689 78 -162 155 -322 170 -355 15 -33 64 -135 108 -227 l81 -168 111 0
c60 0 110 4 110 8 0 5 -16 41 -35 81 -19 39 -35 74 -35 76 0 3 44 96 99 208
54 111 113 233 131 272 18 38 90 188 161 333 71 145 129 265 129 267 0 1 56
118 125 260 69 142 124 260 121 262 -3 3 -32 -50 -64 -118z"/>
<path d="M2120 3941 l0 -332 40 -60 c23 -33 38 -63 35 -68 -3 -5 9 -39 26 -76
17 -37 29 -76 26 -86 -3 -10 -1 -17 4 -13 5 3 9 1 9 -4 0 -6 -6 -12 -14 -15
-9 -4 -17 10 -25 49 -7 29 -17 57 -23 60 -7 5 -9 2 -6 -7 3 -8 13 -41 23 -74
10 -33 20 -54 22 -47 3 6 9 10 14 7 15 -10 21 43 9 82 -7 21 -21 53 -32 71
-11 18 -18 36 -14 39 3 3 19 -23 36 -58 24 -52 30 -77 30 -131 0 -41 4 -68 10
-68 7 0 9 24 4 73 -7 81 -27 127 -111 256 l-54 83 2 320 c0 175 -2 322 -5 325
-3 4 -6 -143 -6 -326z"/>
<path d="M1186 4002 c-4 -6 26 -43 66 -82 72 -70 107 -97 53 -40 -16 16 -26
32 -24 35 3 2 36 -27 73 -65 38 -38 73 -67 77 -64 5 3 9 1 9 -5 0 -6 24 -24
53 -41 28 -16 46 -30 38 -30 -8 0 -12 -2 -9 -5 2 -3 18 0 35 5 25 9 37 8 67
-9 43 -25 53 -26 36 -6 -7 8 -20 15 -30 15 -10 0 -21 7 -24 15 -4 13 -10 14
-26 5 -15 -8 -28 -7 -52 6 -28 14 -102 67 -118 84 -43 45 -132 120 -138 116
-8 -5 -79 50 -72 57 9 7 80 -5 75 -13 -4 -6 57 -25 75 -23 3 1 25 4 50 7 28 4
38 3 25 -3 -20 -8 -20 -8 1 -15 12 -3 29 -4 38 0 12 5 15 2 10 -10 -4 -9 -1
-16 6 -16 32 0 163 -125 155 -148 -3 -9 0 -10 15 -2 13 7 21 7 26 -1 9 -15 64
-123 64 -127 0 -1 -10 2 -21 9 -24 13 -148 49 -164 48 -5 0 30 -14 79 -30 69
-23 99 -40 135 -74 25 -24 58 -55 74 -69 15 -14 27 -28 27 -31 0 -12 -45 7
-69 29 l-24 21 12 -22 c7 -13 28 -27 54 -34 23 -7 48 -17 55 -22 26 -20 10 9
-25 45 -20 21 -32 38 -26 38 6 0 29 -21 53 -46 23 -25 44 -44 46 -41 4 4 -26
34 -148 147 -38 34 -68 74 -87 114 -30 63 -90 141 -91 118 0 -7 -4 -11 -10 -7
-5 3 -6 13 -3 22 5 12 2 15 -10 10 -11 -4 -14 -2 -10 9 3 7 0 14 -7 14 -6 0
-8 -5 -4 -11 4 -7 1 -10 -7 -7 -8 3 -13 11 -11 17 3 16 -40 52 -55 46 -7 -2
-13 3 -13 11 0 12 -6 15 -26 10 -16 -4 -23 -3 -20 3 8 12 0 16 -39 25 -23 5
-27 4 -15 -5 12 -9 10 -10 -10 -5 -14 3 -41 6 -60 7 l-35 1 30 8 30 8 -31 1
c-17 0 -51 4 -76 7 -28 4 -48 2 -52 -4z m360 -103 c3 -6 -5 -3 -20 6 -14 10
-26 19 -26 22 0 7 39 -17 46 -28z m102 -90 c19 -30 11 -32 -11 -3 -10 13 -14
24 -10 24 5 0 14 -9 21 -21z m152 -216 l45 -46 -45 38 c-65 54 -65 55 -54 55
5 -1 29 -22 54 -47z"/>
<path d="M1664 3966 c-3 -9 5 -28 19 -45 13 -16 36 -65 50 -109 30 -93 73
-164 150 -247 31 -33 61 -71 68 -85 6 -14 16 -35 22 -47 11 -24 27 -31 27 -12
0 17 -59 99 -111 155 -73 78 -124 164 -153 258 -14 47 -31 88 -36 91 -5 3 -15
16 -21 27 l-11 21 28 -20 c16 -11 40 -26 54 -33 43 -23 8 12 -39 39 -36 19
-42 20 -47 7z"/>
<path d="M1315 3934 c11 -8 32 -18 48 -21 15 -3 27 -9 27 -14 0 -12 39 -10 65
2 18 8 17 9 -4 5 -13 -3 -50 6 -82 20 -67 27 -83 30 -54 8z"/>
<path d="M1380 3936 c0 -2 7 -6 15 -10 8 -3 15 -1 15 4 0 6 -7 10 -15 10 -8 0
-15 -2 -15 -4z"/>
<path d="M1772 3903 c-10 -4 -8 -11 9 -29 12 -13 17 -24 11 -24 -8 0 -5 -14 8
-40 12 -23 25 -38 31 -35 5 4 1 19 -12 36 -30 42 -17 48 15 6 25 -33 27 -67 4
-67 -6 0 -7 -7 -4 -16 3 -8 2 -12 -4 -9 -6 3 -10 2 -10 -4 0 -5 -3 -17 -7 -27
-5 -13 -3 -16 10 -11 12 4 17 1 17 -11 0 -9 12 -30 26 -47 23 -28 24 -28 18
-6 -4 16 -3 21 5 17 6 -4 11 -1 11 6 0 9 3 9 10 -2 5 -8 7 -24 4 -36 -3 -12 1
-26 10 -33 14 -12 15 -10 9 20 -7 38 -31 99 -38 99 -2 0 -2 -7 2 -16 5 -15
-11 -33 -29 -34 -13 0 -9 38 5 52 27 26 40 59 28 71 -11 11 -15 0 -12 -33 1
-11 -3 -10 -14 4 -19 24 -19 36 -1 36 22 0 16 45 -10 75 -12 15 -28 24 -34 20
-6 -4 -20 1 -31 11 -15 13 -16 19 -7 26 14 8 1 10 -20 1z m108 -96 c0 -13 -29
12 -42 37 -10 19 -8 18 16 -3 14 -14 26 -29 26 -34z m-15 -107 c-5 -15 -10
-19 -17 -12 -5 5 -7 20 -3 32 5 15 10 19 17 12 5 -5 7 -20 3 -32z"/>
<path d="M1374 3875 c11 -8 31 -25 45 -38 15 -13 32 -22 39 -19 7 2 12 -3 12
-11 0 -9 7 -14 18 -11 21 5 66 -31 57 -46 -3 -6 0 -7 10 -4 14 6 14 8 -1 25
-27 30 2 22 39 -11 50 -43 58 -37 12 10 -32 33 -41 37 -58 29 -13 -8 -22 -8
-30 0 -10 10 -3 14 23 13 12 0 29 27 20 33 -6 3 -10 1 -10 -5 0 -6 -5 -8 -11
-5 -6 4 -16 -1 -23 -11 -12 -16 -15 -16 -50 6 -28 17 -34 25 -24 31 7 5 21 6
32 3 14 -5 16 -3 10 7 -5 9 2 7 20 -4 15 -10 30 -16 33 -14 2 3 -6 11 -19 18
-25 14 -68 19 -68 8 0 -16 -34 -18 -56 -4 -30 19 -45 19 -20 0z"/>
<path d="M1744 3858 c3 -13 6 -27 6 -31 0 -5 5 -5 11 -1 8 5 10 0 6 -17 -3
-13 -2 -30 2 -37 6 -10 10 -8 14 8 3 13 -3 38 -15 61 -22 43 -34 51 -24 17z"/>
<path d="M1481 3851 c-9 -6 -10 -11 -2 -15 6 -4 11 -3 11 3 0 6 7 7 17 4 11
-4 14 -3 9 5 -8 14 -16 15 -35 3z"/>
<path d="M1335 3830 c3 -5 8 -10 11 -10 2 0 4 5 4 10 0 6 -5 10 -11 10 -5 0
-7 -4 -4 -10z"/>
<path d="M1360 3816 c0 -14 98 -91 106 -83 3 2 -8 12 -23 22 -15 10 -40 29
-55 43 -16 14 -28 22 -28 18z"/>
<path d="M1900 3793 c0 -5 7 -18 15 -29 17 -22 20 -38 5 -29 -11 7 -14 -38 -3
-49 10 -10 31 -74 38 -118 8 -43 25 -61 25 -25 0 29 -29 128 -42 144 -6 7 -7
24 -4 38 5 18 1 34 -14 52 -11 14 -20 21 -20 16z"/>
<path d="M1797 3749 c-7 -28 -6 -31 10 -14 6 6 8 18 3 24 -5 9 -9 5 -13 -10z"/>
<path d="M1656 3751 c-4 -6 4 -23 18 -38 30 -32 34 -21 7 20 -11 18 -21 25
-25 18z"/>
<path d="M1487 3719 c7 -7 15 -10 18 -7 3 3 -2 9 -12 12 -14 6 -15 5 -6 -5z"/>
<path d="M1946 3705 c4 -8 8 -15 10 -15 2 0 4 7 4 15 0 8 -4 15 -10 15 -5 0
-7 -7 -4 -15z"/>
<path d="M1966 3655 c8 -37 14 -45 14 -19 0 10 -5 26 -10 34 -8 11 -9 7 -4
-15z"/>
<path d="M1471 3626 c2 -2 20 -6 39 -10 25 -4 31 -3 20 4 -14 9 -69 15 -59 6z"/>
<path d="M1353 3603 c-9 -23 78 -97 147 -125 41 -16 79 -22 150 -24 l95 -2
-95 8 c-68 5 -111 14 -151 32 -54 25 -139 91 -139 109 0 4 24 10 53 12 l52 3
-53 2 c-41 2 -54 -2 -59 -15z"/>
<path d="M1585 3611 c22 -6 3 -9 -70 -10 -79 -2 -95 -4 -75 -13 25 -10 151 -5
185 8 12 5 16 4 12 -3 -5 -7 0 -9 12 -6 11 3 28 0 38 -6 15 -9 13 -10 -12 -5
-21 5 -27 3 -20 -4 6 -5 18 -12 28 -14 10 -1 17 -7 15 -11 -2 -5 15 -15 37
-23 49 -17 48 -17 38 -1 -4 6 -8 17 -8 22 0 6 -9 10 -20 11 -46 2 -51 4 -37
12 18 12 -44 39 -104 46 -37 4 -41 3 -19 -3z"/>
<path d="M1994 3525 c5 -76 29 -157 52 -176 9 -7 4 10 -11 42 -16 36 -25 73
-26 109 0 30 -5 64 -10 75 -6 14 -8 -2 -5 -50z"/>
<path d="M1430 3551 c0 -4 26 -21 58 -37 40 -20 70 -29 102 -28 25 1 47 -2 50
-6 3 -5 50 -10 105 -13 55 -3 111 -8 125 -11 16 -4 13 0 -10 10 -20 9 -69 17
-115 19 -44 2 -100 8 -124 13 -24 6 -50 8 -58 5 -8 -3 -18 -2 -22 3 -9 13
-111 54 -111 45z"/>
<path d="M1471 3556 c3 -3 57 -17 119 -31 142 -33 203 -29 70 3 -99 24 -199
39 -189 28z"/>
<path d="M1608 3553 c6 -2 18 -2 25 0 6 3 1 5 -13 5 -14 0 -19 -2 -12 -5z"/>
<path d="M2142 3448 c3 -7 20 -57 38 -110 18 -54 36 -98 39 -98 4 0 -9 50 -28
110 -20 61 -39 110 -44 110 -5 0 -7 -6 -5 -12z"/>
<path d="M1900 3445 c0 -3 11 -10 24 -15 26 -9 141 -137 158 -176 8 -17 8 -27
0 -37 -7 -8 -9 -17 -5 -20 14 -15 23 -5 23 25 0 50 -125 207 -177 223 -13 3
-23 4 -23 0z"/>
<path d="M2121 3347 l-1 -98 40 -59 c46 -67 65 -110 31 -67 -12 15 -27 27 -34
27 -6 0 1 -13 16 -28 15 -15 27 -31 27 -36 0 -4 16 -32 35 -62 43 -67 116
-212 140 -279 22 -60 33 -75 52 -75 24 0 10 46 -51 172 -30 62 -57 124 -59
138 -4 23 -4 23 -6 -4 0 -17 22 -75 53 -140 59 -122 72 -156 58 -156 -5 0 -21
33 -37 73 -36 93 -66 153 -126 253 -50 84 -64 119 -29 74 42 -54 16 0 -41 85
-52 78 -59 94 -55 125 3 19 2 62 -3 95 -8 59 -8 58 -10 -38z"/>
<path d="M2140 3382 c0 -7 9 -35 20 -64 24 -62 24 -70 5 -44 -37 49 -9 -6 46
-91 50 -78 60 -100 56 -126 -2 -18 2 -44 9 -59 17 -34 29 -37 20 -5 -4 12 -8
41 -11 64 -2 29 -18 65 -52 115 -55 84 -60 94 -43 83 10 -6 11 -4 5 11 -4 10
-16 42 -27 69 -21 54 -28 65 -28 47z"/>
<path d="M1798 3323 c7 -3 16 -2 19 1 4 3 -2 6 -13 5 -11 0 -14 -3 -6 -6z"/>
<path d="M1889 3315 c47 -16 73 -33 31 -21 -14 4 -63 11 -110 15 -91 9 -150
-6 -150 -38 0 -41 139 -121 219 -127 46 -4 45 -3 -12 10 -32 7 -61 17 -65 21
-4 4 3 5 16 2 12 -3 22 -1 22 3 0 5 6 10 13 13 6 2 -1 1 -18 -1 -16 -3 -40 -5
-52 -5 -24 1 -88 42 -79 51 3 2 12 -1 21 -8 9 -7 19 -10 22 -6 4 4 1 11 -7 16
-23 15 4 12 47 -4 72 -26 123 -39 129 -33 4 3 22 0 41 -8 20 -8 45 -15 57 -14
29 1 -81 39 -121 42 -18 1 -33 5 -33 8 0 4 -12 10 -27 13 -83 20 -103 23 -103
14 0 -6 -7 -8 -15 -4 -8 3 -15 0 -15 -7 0 -7 -7 -3 -15 8 -14 18 -13 20 12 34
31 16 166 17 171 0 2 -5 19 -9 38 -9 24 0 34 -5 34 -15 0 -8 9 -15 20 -15 11
0 20 -4 20 -10 0 -13 5 -14 -81 15 -40 14 -98 27 -129 30 l-55 5 45 -11 c25
-6 82 -21 128 -35 45 -14 87 -22 92 -19 5 3 22 -1 37 -8 23 -12 30 -12 40 -2
9 10 4 19 -28 40 -23 14 -43 24 -45 22 -3 -2 12 -14 32 -26 20 -12 34 -25 30
-28 -3 -3 -14 1 -23 9 -10 9 -33 23 -52 33 -22 11 -30 20 -22 25 14 8 -24 26
-74 34 -18 4 -12 0 14 -9z"/>
<path d="M2250 3244 c0 -8 5 -12 10 -9 6 4 8 11 5 16 -9 14 -15 11 -15 -7z"/>
<path d="M1755 3220 c-8 -14 13 -22 31 -12 14 8 14 10 -5 15 -11 3 -23 1 -26
-3z"/>
<path d="M2120 3203 c0 -12 5 -25 11 -28 19 -12 22 3 5 27 l-16 22 0 -21z"/>
<path d="M2261 3204 c0 -11 3 -14 6 -6 3 7 2 16 -1 19 -3 4 -6 -2 -5 -13z"/>
<path d="M2281 3173 c0 -16 6 -59 14 -98 l14 -70 -6 85 c-4 47 -6 91 -6 98 0
6 -4 12 -9 12 -4 0 -8 -12 -7 -27z"/>
<path d="M1895 3170 c-4 -6 15 -10 52 -9 48 1 53 3 28 9 -44 11 -73 11 -80 0z"/>
<path d="M2084 3052 c-1 -164 -31 -297 -81 -354 -8 -9 -12 -22 -8 -27 8 -14
221 -15 230 -2 3 5 -6 26 -20 47 -14 21 -32 60 -40 88 -21 76 -38 222 -34 294
2 34 0 62 -5 62 -14 0 0 -238 19 -320 17 -74 51 -150 67 -150 4 0 8 -4 8 -9 0
-5 -49 -10 -110 -10 l-110 -1 25 35 c25 38 49 108 65 196 12 61 13 269 3 269
-5 0 -8 -53 -9 -118z"/>
<path d="M1995 3150 c-18 -8 -18 -9 5 -9 14 0 34 4 45 9 18 8 18 9 -5 9 -14 0
-34 -4 -45 -9z"/>
</g>
</svg>